<svg xmlns="http://www.w3.org/2000/svg" width="260" height="280" fill="none" viewBox="0 0 253 270" class="w-8 dark:[filter:drop-shadow(1px_2px_3px_#aa00ff)]"><path stroke="url(#a)" stroke-width="5" d="m3.525 32.568.153-.041.146-.06-.948-2.313.949 2.313h.001l.01-.005.037-.015.154-.063.614-.247c.543-.218 1.348-.538 2.391-.946a487 487 0 0 1 8.936-3.389 586 586 0 0 1 30.509-10.297C70.985 9.992 101.47 2.55 126.005 2.5c24.72-.05 55.452 7.392 80.163 14.93a586 586 0 0 1 30.763 10.345 489 489 0 0 1 9.011 3.408c1.052.41 1.864.733 2.411.952l.62.25.155.063.038.015.009.004h.002l.947-2.313-.947 2.314.146.06.152.04c.685.185 1.036.728 1.025 1.249-.304 13.73-3.575 74.787-36.823 141.466-34.044 68.273-79.047 88.644-87.177 91.862-8.13-3.218-53.133-23.589-87.177-91.862C6.075 108.604 2.804 47.548 2.5 33.817c-.011-.52.34-1.064 1.025-1.249Z"></path><path stroke="url(#b)" stroke-width="5" d="M27.635 50.3c-.098-2.3 1.416-4.37 3.758-5.047l79.078-22.892c3.517-1.018 7.029 1.621 7.029 5.283v203.679c0 .545-.252.898-.516 1.07-.242.158-.56.216-.957.006-11.045-5.824-39.056-24.435-61.001-71.82-22.78-49.19-26.721-94.584-27.391-110.28Z"></path><path stroke="url(#c)" stroke-linecap="round" stroke-width="5" d="M136 20s29.188 4.063 47.5 9.368c18.299 5.302 36.281 11.375 42.867 13.635 1.589.546 2.641 2.004 2.602 3.684-.279 11.909-2.93 60.481-27.142 112.665C173.935 219.468 136 233 136 233"></path><defs><linearGradient id="a" x1="0" x2="253" y1="36.5" y2="36.5" gradientUnits="userSpaceOnUse"><stop stop-color="#E81DCD"></stop><stop offset="1" stop-color="#1735F0"></stop></linearGradient><linearGradient id="b" x1="25" x2="120" y1="45" y2="45" gradientUnits="userSpaceOnUse"><stop stop-color="#E10ECB"></stop><stop offset="1" stop-color="#1A35F0"></stop></linearGradient><linearGradient id="c" x1="229" x2="136" y1="65.5" y2="65.5" gradientUnits="userSpaceOnUse"><stop stop-color="#1E34EF"></stop><stop offset="1" stop-color="#E50ECB"></stop></linearGradient></defs></svg>