<svg width="28" height="28" viewBox="0 0 24 24" fill="none" xmlns="http://www.w3.org/2000/svg">
  <path d="m3.69 3.96-.68.26q-.31.14-.34.2c0 .03.27 5.61 2.77 10.62C8 20.17 11.4 21.7 12 21.94c.61-.24 4-1.77 6.56-6.9 2.5-5 2.8-10.55 2.77-10.63-.04-.08-.19-.13-.35-.2A37 37 0 0 0 18 3.19a23 23 0 0 0-6.03-1.12c-1.84 0-4.14.56-5.98 1.13-.92.28-1.72.56-2.3.77Z" stroke="currentColor" stroke-width="1.5"/>
  <path d="M5.44 6.28c0-.15.09-.29.23-.33l4.72-1.49c.2-.07.42.1.42.34v13.26q0 .04-.03.07h-.06c-.66-.38-2.06-2-3.37-5.08-1.36-3.2-1.87-5.75-1.9-6.77Z" stroke="currentColor"/>
  <path d="M13.02 4.3s1.74.27 2.83.62 2.16.74 2.55.88q.16.07.16.24c-.02.78-.54 3.5-1.98 6.9-1.67 3.9-3.56 5.23-3.56 5.23" stroke="currentColor" stroke-linecap="round"/>
</svg>
